<svg width="48" height="48" viewBox="0 0 48 48" fill="none" xmlns="http://www.w3.org/2000/svg">
<path fill-rule="evenodd" clip-rule="evenodd" d="M38 2H14C9.58172 2 6 5.58172 6 10V38C6 42.4183 9.58172 46 14 46H38C40.2091 46 42 44.2091 42 42V6C42 3.79086 40.2091 2 38 2ZM38 6V30H14C12.5429 30 11.1767 30.3896 10 31.0703V10C10 7.79086 11.7909 6 14 6H38ZM14 34C11.7909 34 10 35.7909 10 38C10 40.2091 11.7909 42 14 42H38V34H14ZM14 12C14 13.1046 14.8954 14 16 14H32C33.1046 14 34 13.1046 34 12C34 10.8954 33.1046 10 32 10H16C14.8954 10 14 10.8954 14 12Z" fill="#1F88C9"/>
<path d="M38 30V31H39V30H38ZM38 6H39V5H38V6ZM10 31.0703H9V32.804L10.5007 31.9359L10 31.0703ZM38 42V43H39V42H38ZM38 34H39V33H38V34ZM14 3H38V1H14V3ZM7 10C7 6.13401 10.134 3 14 3V1C9.02944 1 5 5.02944 5 10H7ZM7 38V10H5V38H7ZM14 45C10.134 45 7 41.866 7 38H5C5 42.9706 9.02944 47 14 47V45ZM38 45H14V47H38V45ZM41 42C41 43.6569 39.6569 45 38 45V47C40.7614 47 43 44.7614 43 42H41ZM41 6V42H43V6H41ZM38 3C39.6569 3 41 4.34315 41 6H43C43 3.23858 40.7614 1 38 1V3ZM39 30V6H37V30H39ZM14 31H38V29H14V31ZM10.5007 31.9359C11.5293 31.3409 12.7233 31 14 31V29C12.3624 29 10.8241 29.4383 9.49927 30.2047L10.5007 31.9359ZM9 10V31.0703H11V10H9ZM14 5C11.2386 5 9 7.23858 9 10H11C11 8.34315 12.3431 7 14 7V5ZM38 5H14V7H38V5ZM11 38C11 36.3431 12.3431 35 14 35V33C11.2386 33 9 35.2386 9 38H11ZM14 41C12.3431 41 11 39.6569 11 38H9C9 40.7614 11.2386 43 14 43V41ZM38 41H14V43H38V41ZM37 34V42H39V34H37ZM14 35H38V33H14V35ZM16 13C15.4477 13 15 12.5523 15 12H13C13 13.6569 14.3431 15 16 15V13ZM32 13H16V15H32V13ZM33 12C33 12.5523 32.5523 13 32 13V15C33.6569 15 35 13.6569 35 12H33ZM32 11C32.5523 11 33 11.4477 33 12H35C35 10.3431 33.6569 9 32 9V11ZM16 11H32V9H16V11ZM15 12C15 11.4477 15.4477 11 16 11V9C14.3431 9 13 10.3431 13 12H15Z" fill="white"/>
</svg>
