<svg width="48" height="48" viewBox="0 0 48 48" fill="none" xmlns="http://www.w3.org/2000/svg">
<path fill-rule="evenodd" clip-rule="evenodd" d="M26.7733 2.15516C27.0705 2.27986 27.3311 2.47425 27.5349 2.71787L41.2818 16.4649C41.5258 16.6689 41.7205 16.93 41.8452 17.2276C41.9548 17.4762 42.0028 17.7293 41.9997 17.9765L41.9999 18.0001V38C41.9999 42.4183 38.4182 46 33.9999 46H14C9.58171 46 6 42.4183 6 38V10.0001C6 5.58184 9.58171 2.00012 14 2.00012H25.9999L26.0235 2.00026C26.271 1.99721 26.5245 2.04532 26.7733 2.15516ZM27.9999 8.81725V14.0001C27.9999 15.1047 28.8954 16.0001 29.9999 16.0001H35.1827L27.9999 8.81725ZM9.99999 10.0001C9.99999 7.79097 11.7908 6.00011 14 6.00011H23.9999V14.0001C23.9999 17.3138 26.6862 20.0001 29.9999 20.0001H37.9999V38C37.9999 40.2092 36.209 42 33.9999 42H14C11.7908 42 9.99999 40.2092 9.99999 38V10.0001Z" fill="#1F88C9"/>
<path d="M27.5349 2.71787L26.7677 3.35938L26.7963 3.39351L26.8278 3.42497L27.5349 2.71787ZM26.7733 2.15516L26.3696 3.07001L26.3779 3.0737L26.3863 3.07724L26.7733 2.15516ZM41.2818 16.4649L40.5747 17.172L40.6062 17.2035L40.6404 17.2321L41.2818 16.4649ZM41.8452 17.2276L40.923 17.6141L40.9265 17.6226L40.9302 17.6309L41.8452 17.2276ZM41.9997 17.9765L40.9998 17.9642L40.9997 17.9732L40.9998 17.9822L41.9997 17.9765ZM41.9999 18.0001H42.9999L42.9999 17.9944L41.9999 18.0001ZM25.9999 2.00012L26.0057 1.00012H25.9999V2.00012ZM26.0235 2.00026L26.0177 3.00024L26.0268 3.0003L26.0358 3.00018L26.0235 2.00026ZM27.9999 8.81725L28.707 8.11015L26.9999 6.40303V8.81725H27.9999ZM35.1827 16.0001V17.0001H37.5969L35.8898 15.293L35.1827 16.0001ZM23.9999 6.00011H24.9999V5.00011H23.9999V6.00011ZM37.9999 20.0001H38.9999V19.0001H37.9999V20.0001ZM28.302 2.07635C27.9972 1.71195 27.6069 1.42048 27.1604 1.23308L26.3863 3.07724C26.5341 3.13924 26.665 3.23655 26.7677 3.35938L28.302 2.07635ZM41.9889 15.7578L28.242 2.01076L26.8278 3.42497L40.5747 17.172L41.9889 15.7578ZM42.7675 16.8411C42.5801 16.3938 42.2882 16.0028 41.9231 15.6976L40.6404 17.2321C40.7635 17.335 40.8609 17.4661 40.923 17.6141L42.7675 16.8411ZM42.9997 17.9888C43.0044 17.6014 42.9286 17.2062 42.7603 16.8243L40.9302 17.6309C40.9809 17.7461 41.0011 17.8572 40.9998 17.9642L42.9997 17.9888ZM42.9999 17.9944L42.9997 17.9709L40.9998 17.9822L40.9999 18.0057L42.9999 17.9944ZM42.9999 38V18.0001H40.9999V38H42.9999ZM33.9999 47C38.9705 47 42.9999 42.9706 42.9999 38H40.9999C40.9999 41.866 37.8659 45 33.9999 45V47ZM14 47H33.9999V45H14V47ZM5 38C5 42.9706 9.02942 47 14 47V45C10.134 45 7 41.866 7 38H5ZM5 10.0001V38H7V10.0001H5ZM14 1.00012C9.02942 1.00012 5 5.02955 5 10.0001H7C7 6.13412 10.134 3.00012 14 3.00012V1.00012ZM25.9999 1.00012H14V3.00012H25.9999V1.00012ZM26.0293 1.00028L26.0057 1.00014L25.9942 3.00011L26.0177 3.00024L26.0293 1.00028ZM27.1771 1.2403C26.7948 1.07154 26.3991 0.995558 26.0112 1.00034L26.0358 3.00018C26.1429 2.99887 26.2542 3.01911 26.3696 3.07001L27.1771 1.2403ZM28.9999 14.0001V8.81725H26.9999V14.0001H28.9999ZM29.9999 15.0001C29.4476 15.0001 28.9999 14.5524 28.9999 14.0001H26.9999C26.9999 15.6569 28.3431 17.0001 29.9999 17.0001V15.0001ZM35.1827 15.0001H29.9999V17.0001H35.1827V15.0001ZM27.2928 9.52436L34.4756 16.7072L35.8898 15.293L28.707 8.11015L27.2928 9.52436ZM14 5.00011C11.2386 5.00011 8.99999 7.23868 8.99999 10.0001H11C11 8.34325 12.3431 7.00011 14 7.00011V5.00011ZM23.9999 5.00011H14V7.00011H23.9999V5.00011ZM24.9999 14.0001V6.00011H22.9999V14.0001H24.9999ZM29.9999 19.0001C27.2385 19.0001 24.9999 16.7615 24.9999 14.0001H22.9999C22.9999 17.8661 26.1339 21.0001 29.9999 21.0001V19.0001ZM37.9999 19.0001H29.9999V21.0001H37.9999V19.0001ZM38.9999 38V20.0001H36.9999V38H38.9999ZM33.9999 43C36.7613 43 38.9999 40.7614 38.9999 38H36.9999C36.9999 39.6569 35.6567 41 33.9999 41V43ZM14 43H33.9999V41H14V43ZM8.99999 38C8.99999 40.7614 11.2386 43 14 43V41C12.3431 41 11 39.6569 11 38H8.99999ZM8.99999 10.0001V38H11V10.0001H8.99999Z" fill="white"/>
</svg>
