<svg width="48" height="48" viewBox="0 0 48 48" fill="none" xmlns="http://www.w3.org/2000/svg">
<path fill-rule="evenodd" clip-rule="evenodd" d="M24 46C11.8497 46 2 36.1503 2 24C2 11.8497 11.8497 2 24 2C36.1503 2 46 11.8497 46 24C46 36.1503 36.1503 46 24 46ZM24 42C33.9411 42 42 33.9411 42 24C42 14.0589 33.9411 6 24 6C14.0589 6 6 14.0589 6 24C6 33.9411 14.0589 42 24 42ZM26 23.0218V12C26 10.8954 25.1046 10 24 10C22.8954 10 22 10.8954 22 12V24C22 24.6172 22.2849 25.1998 22.7721 25.5787L31.7721 32.5787C32.644 33.2568 33.9006 33.0998 34.5787 32.2279C35.2568 31.356 35.0998 30.0994 34.2279 29.4213L26 23.0218Z" fill="#1F88C9"/>
<path d="M26 23.0218H25V23.5109L25.3861 23.8112L26 23.0218ZM22.7721 25.5787L23.3861 24.7894H23.3861L22.7721 25.5787ZM31.7721 32.5787L32.3861 31.7894L31.7721 32.5787ZM34.5787 32.2279L35.3681 32.8418V32.8418L34.5787 32.2279ZM34.2279 29.4213L34.8418 28.6319L34.2279 29.4213ZM1 24C1 36.7025 11.2975 47 24 47V45C12.402 45 3 35.598 3 24H1ZM24 1C11.2975 1 1 11.2975 1 24H3C3 12.402 12.402 3 24 3V1ZM47 24C47 11.2975 36.7025 1 24 1V3C35.598 3 45 12.402 45 24H47ZM24 47C36.7025 47 47 36.7025 47 24H45C45 35.598 35.598 45 24 45V47ZM41 24C41 33.3888 33.3888 41 24 41V43C34.4934 43 43 34.4934 43 24H41ZM24 7C33.3888 7 41 14.6112 41 24H43C43 13.5066 34.4934 5 24 5V7ZM7 24C7 14.6112 14.6112 7 24 7V5C13.5066 5 5 13.5066 5 24H7ZM24 41C14.6112 41 7 33.3888 7 24H5C5 34.4934 13.5066 43 24 43V41ZM25 12V23.0218H27V12H25ZM24 11C24.5523 11 25 11.4477 25 12H27C27 10.3431 25.6569 9 24 9V11ZM23 12C23 11.4477 23.4477 11 24 11V9C22.3431 9 21 10.3431 21 12H23ZM23 24V12H21V24H23ZM23.3861 24.7894C23.1425 24.5999 23 24.3086 23 24H21C21 24.9258 21.4274 25.7997 22.1582 26.3681L23.3861 24.7894ZM32.3861 31.7894L23.3861 24.7894L22.1582 26.3681L31.1582 33.3681L32.3861 31.7894ZM33.7894 31.6139C33.4503 32.0499 32.822 32.1284 32.3861 31.7894L31.1582 33.3681C32.466 34.3853 34.3508 34.1497 35.3681 32.8418L33.7894 31.6139ZM33.6139 30.2106C34.0499 30.5497 34.1284 31.178 33.7894 31.6139L35.3681 32.8418C36.3853 31.534 36.1497 29.6492 34.8418 28.6319L33.6139 30.2106ZM25.3861 23.8112L33.6139 30.2106L34.8418 28.6319L26.6139 22.2325L25.3861 23.8112Z" fill="white"/>
</svg>
