<svg width="48" height="48" viewBox="0 0 48 48" fill="none" xmlns="http://www.w3.org/2000/svg">
<path fill-rule="evenodd" clip-rule="evenodd" d="M34 15.3333C38.4183 15.3333 42 18.915 42 23.3333V37.3333C42 41.7516 38.4183 45.3333 34 45.3333H14C9.58172 45.3333 6 41.7516 6 37.3333V23.3333C6 18.915 9.58172 15.3333 14 15.3333V13.3333C14 7.81047 18.4772 3.33331 24 3.33331C29.5228 3.33331 34 7.81047 34 13.3333V15.3333ZM14 19.3333C11.7909 19.3333 10 21.1242 10 23.3333V37.3333C10 39.5425 11.7909 41.3333 14 41.3333H34C36.2091 41.3333 38 39.5425 38 37.3333V23.3333C38 21.1242 36.2091 19.3333 34 19.3333H14ZM30 13.3333V15.3333H18V13.3333C18 10.0196 20.6863 7.33331 24 7.33331C27.3137 7.33331 30 10.0196 30 13.3333ZM24 37.3333C20.134 37.3333 17 34.1993 17 30.3333C17 26.4673 20.134 23.3333 24 23.3333C27.866 23.3333 31 26.4673 31 30.3333C31 34.1993 27.866 37.3333 24 37.3333ZM27 30.3333C27 31.9902 25.6569 33.3333 24 33.3333C22.3431 33.3333 21 31.9902 21 30.3333C21 28.6765 22.3431 27.3333 24 27.3333C25.6569 27.3333 27 28.6765 27 30.3333Z" fill="#1F88C9"/>
<path d="M34 15.3333H33V16.3333H34V15.3333ZM14 15.3333V16.3333H15V15.3333H14ZM30 15.3333V16.3333H31V15.3333H30ZM18 15.3333H17V16.3333H18V15.3333ZM43 23.3333C43 18.3628 38.9706 14.3333 34 14.3333V16.3333C37.866 16.3333 41 19.4673 41 23.3333H43ZM43 37.3333V23.3333H41V37.3333H43ZM34 46.3333C38.9706 46.3333 43 42.3039 43 37.3333H41C41 41.1993 37.866 44.3333 34 44.3333V46.3333ZM14 46.3333H34V44.3333H14V46.3333ZM5 37.3333C5 42.3039 9.02944 46.3333 14 46.3333V44.3333C10.134 44.3333 7 41.1993 7 37.3333H5ZM5 23.3333V37.3333H7V23.3333H5ZM14 14.3333C9.02944 14.3333 5 18.3628 5 23.3333H7C7 19.4673 10.134 16.3333 14 16.3333V14.3333ZM13 13.3333V15.3333H15V13.3333H13ZM24 2.33331C17.9249 2.33331 13 7.25818 13 13.3333H15C15 8.36275 19.0294 4.33331 24 4.33331V2.33331ZM35 13.3333C35 7.25818 30.0751 2.33331 24 2.33331V4.33331C28.9706 4.33331 33 8.36275 33 13.3333H35ZM35 15.3333V13.3333H33V15.3333H35ZM11 23.3333C11 21.6765 12.3431 20.3333 14 20.3333V18.3333C11.2386 18.3333 9 20.5719 9 23.3333H11ZM11 37.3333V23.3333H9V37.3333H11ZM14 40.3333C12.3431 40.3333 11 38.9902 11 37.3333H9C9 40.0947 11.2386 42.3333 14 42.3333V40.3333ZM34 40.3333H14V42.3333H34V40.3333ZM37 37.3333C37 38.9902 35.6569 40.3333 34 40.3333V42.3333C36.7614 42.3333 39 40.0947 39 37.3333H37ZM37 23.3333V37.3333H39V23.3333H37ZM34 20.3333C35.6569 20.3333 37 21.6765 37 23.3333H39C39 20.5719 36.7614 18.3333 34 18.3333V20.3333ZM14 20.3333H34V18.3333H14V20.3333ZM31 15.3333V13.3333H29V15.3333H31ZM18 16.3333H30V14.3333H18V16.3333ZM17 13.3333V15.3333H19V13.3333H17ZM24 6.33331C20.134 6.33331 17 9.46732 17 13.3333H19C19 10.5719 21.2386 8.33331 24 8.33331V6.33331ZM31 13.3333C31 9.46732 27.866 6.33331 24 6.33331V8.33331C26.7614 8.33331 29 10.5719 29 13.3333H31ZM16 30.3333C16 34.7516 19.5817 38.3333 24 38.3333V36.3333C20.6863 36.3333 18 33.647 18 30.3333H16ZM24 22.3333C19.5817 22.3333 16 25.915 16 30.3333H18C18 27.0196 20.6863 24.3333 24 24.3333V22.3333ZM32 30.3333C32 25.915 28.4183 22.3333 24 22.3333V24.3333C27.3137 24.3333 30 27.0196 30 30.3333H32ZM24 38.3333C28.4183 38.3333 32 34.7516 32 30.3333H30C30 33.647 27.3137 36.3333 24 36.3333V38.3333ZM24 34.3333C26.2091 34.3333 28 32.5425 28 30.3333H26C26 31.4379 25.1046 32.3333 24 32.3333V34.3333ZM20 30.3333C20 32.5425 21.7909 34.3333 24 34.3333V32.3333C22.8954 32.3333 22 31.4379 22 30.3333H20ZM24 26.3333C21.7909 26.3333 20 28.1242 20 30.3333H22C22 29.2287 22.8954 28.3333 24 28.3333V26.3333ZM28 30.3333C28 28.1242 26.2091 26.3333 24 26.3333V28.3333C25.1046 28.3333 26 29.2287 26 30.3333H28Z" fill="white"/>
</svg>
