<svg width="57" height="59" viewBox="0 0 57 59" fill="none" xmlns="http://www.w3.org/2000/svg">
<path fill-rule="evenodd" clip-rule="evenodd" d="M39.0965 8.26274L45.1214 14.4497H22.3788C21.0665 14.4497 20.0026 15.5422 20.0026 16.8898C20.0026 18.2374 21.0665 19.3299 22.3788 19.3299H45.1214L39.0965 25.5168C38.1686 26.4698 38.1686 28.0147 39.0965 28.9677C40.0245 29.9206 41.529 29.9206 42.457 28.9677L50.858 20.3406C52.714 18.4348 52.714 15.3448 50.858 13.439L42.457 4.81192C41.529 3.859 40.0245 3.859 39.0965 4.81192C38.1686 5.76484 38.1686 7.30982 39.0965 8.26274ZM34.6562 39.6701H11.8786L17.9035 33.4832C18.8314 32.5303 18.8314 30.9853 17.9035 30.0324C16.9755 29.0794 15.471 29.0794 14.543 30.0324L6.14194 38.6594C4.28602 40.5652 4.28602 43.6552 6.14194 45.561L14.543 54.1881C15.471 55.141 16.9755 55.141 17.9035 54.1881C18.8314 53.2352 18.8314 51.6902 17.9035 50.7373L11.8786 44.5503H34.6562C35.9685 44.5503 37.0323 43.4579 37.0323 42.1102C37.0323 40.7626 35.9685 39.6701 34.6562 39.6701Z" fill="#1F88C9"/>
<path d="M45.1214 14.4497V16.4497H49.8607L46.5543 13.0544L45.1214 14.4497ZM39.0965 8.26274L40.5294 6.86741L40.5294 6.86741L39.0965 8.26274ZM45.1214 19.3299L46.5543 20.7252L49.8607 17.3299H45.1214V19.3299ZM39.0965 25.5168L40.5294 26.9122L40.5294 26.9122L39.0965 25.5168ZM39.0965 28.9677L40.5294 27.5723L40.5294 27.5723L39.0965 28.9677ZM42.457 28.9677L41.0241 27.5723L41.0241 27.5723L42.457 28.9677ZM50.858 20.3406L49.4252 18.9453L49.4252 18.9453L50.858 20.3406ZM50.858 13.439L49.4252 14.8343L49.4252 14.8343L50.858 13.439ZM42.457 4.81192L41.0241 6.20724L41.0241 6.20724L42.457 4.81192ZM39.0965 4.81192L40.5294 6.20724L40.5294 6.20724L39.0965 4.81192ZM11.8786 39.6701L10.4457 38.2748L7.13931 41.6701H11.8786V39.6701ZM17.9035 33.4832L19.3363 34.8785L17.9035 33.4832ZM17.9035 30.0324L16.4706 31.4277L16.4706 31.4277L17.9035 30.0324ZM14.543 30.0324L13.1102 28.637L13.1102 28.637L14.543 30.0324ZM6.14194 38.6594L7.57479 40.0547L7.57479 40.0547L6.14194 38.6594ZM6.14194 45.561L4.70908 46.9564L4.70908 46.9564L6.14194 45.561ZM14.543 54.1881L15.9759 52.7928L15.9759 52.7928L14.543 54.1881ZM17.9035 54.1881L16.4706 52.7928L16.4706 52.7928L17.9035 54.1881ZM17.9035 50.7373L19.3363 49.3419L17.9035 50.7373ZM11.8786 44.5503V42.5503H7.13931L10.4457 45.9456L11.8786 44.5503ZM46.5543 13.0544L40.5294 6.86741L37.6637 9.65806L43.6886 15.845L46.5543 13.0544ZM22.3788 16.4497H45.1214V12.4497H22.3788V16.4497ZM22.0026 16.8898C22.0026 16.5964 22.2207 16.4497 22.3788 16.4497V12.4497C19.9122 12.4497 18.0026 14.488 18.0026 16.8898H22.0026ZM22.3788 17.3299C22.2207 17.3299 22.0026 17.1832 22.0026 16.8898H18.0026C18.0026 19.2916 19.9122 21.3299 22.3788 21.3299V17.3299ZM45.1214 17.3299H22.3788V21.3299H45.1214V17.3299ZM40.5294 26.9122L46.5543 20.7252L43.6886 17.9346L37.6637 24.1215L40.5294 26.9122ZM40.5294 27.5723C40.3576 27.396 40.3576 27.0886 40.5294 26.9122L37.6637 24.1215C35.9795 25.851 35.9795 28.6335 37.6637 30.363L40.5294 27.5723ZM41.0241 27.5723C40.8813 27.719 40.6722 27.719 40.5294 27.5723L37.6637 30.363C39.3767 32.1221 42.1767 32.1221 43.8898 30.363L41.0241 27.5723ZM49.4252 18.9453L41.0241 27.5723L43.8898 30.363L52.2909 21.7359L49.4252 18.9453ZM49.4252 14.8343C50.5249 15.9636 50.5249 17.816 49.4252 18.9453L52.2909 21.7359C54.903 19.0536 54.903 14.726 52.2909 12.0436L49.4252 14.8343ZM41.0241 6.20724L49.4252 14.8343L52.2909 12.0436L43.8898 3.41659L41.0241 6.20724ZM40.5294 6.20724C40.6722 6.06056 40.8813 6.06056 41.0241 6.20724L43.8898 3.4166C42.1767 1.65744 39.3767 1.65744 37.6637 3.4166L40.5294 6.20724ZM40.5294 6.86741C40.3576 6.69103 40.3576 6.38363 40.5294 6.20724L37.6637 3.41659C35.9795 5.14604 35.9795 7.92861 37.6637 9.65806L40.5294 6.86741ZM11.8786 41.6701H34.6562V37.6701H11.8786V41.6701ZM16.4706 32.0878L10.4457 38.2748L13.3114 41.0654L19.3363 34.8785L16.4706 32.0878ZM16.4706 31.4277C16.6424 31.6041 16.6424 31.9115 16.4706 32.0878L19.3363 34.8785C21.0205 33.149 21.0205 30.3665 19.3363 28.637L16.4706 31.4277ZM15.9759 31.4277C16.1187 31.281 16.3278 31.281 16.4706 31.4277L19.3363 28.637C17.6232 26.8779 14.8232 26.8779 13.1102 28.637L15.9759 31.4277ZM7.57479 40.0547L15.9759 31.4277L13.1102 28.637L4.70908 37.2641L7.57479 40.0547ZM7.57479 44.1657C6.47507 43.0364 6.47507 41.184 7.57479 40.0547L4.70908 37.2641C2.09697 39.9464 2.09697 44.274 4.70908 46.9564L7.57479 44.1657ZM15.9759 52.7928L7.57479 44.1657L4.70908 46.9564L13.1102 55.5834L15.9759 52.7928ZM16.4706 52.7928C16.3278 52.9395 16.1187 52.9395 15.9759 52.7928L13.1102 55.5834C14.8232 57.3426 17.6232 57.3426 19.3363 55.5834L16.4706 52.7928ZM16.4706 52.1326C16.6424 52.309 16.6424 52.6164 16.4706 52.7928L19.3363 55.5834C21.0205 53.854 21.0205 51.0714 19.3363 49.3419L16.4706 52.1326ZM10.4457 45.9456L16.4706 52.1326L19.3363 49.3419L13.3114 43.155L10.4457 45.9456ZM34.6562 42.5503H11.8786V46.5503H34.6562V42.5503ZM35.0323 42.1102C35.0323 42.4037 34.8142 42.5503 34.6562 42.5503V46.5503C37.1228 46.5503 39.0323 44.512 39.0323 42.1102H35.0323ZM34.6562 41.6701C34.8142 41.6701 35.0323 41.8168 35.0323 42.1102H39.0323C39.0323 39.7084 37.1228 37.6701 34.6562 37.6701V41.6701Z" fill="white"/>
</svg>
