<svg width="188" height="36" viewBox="0 0 188 36" fill="none" xmlns="http://www.w3.org/2000/svg">
<path fill-rule="evenodd" clip-rule="evenodd" d="M176.607 8.17964H0.783203C1.776 4.16247 4.96089 1.62179 8.73351 0.565075C10.0758 0.188096 11.4895 0 12.9072 0H173.144L176.607 8.17964Z" fill="#B6D3DD" fill-opacity="0.5"/>
<path fill-rule="evenodd" clip-rule="evenodd" d="M182.497 22.1043H15.584C15.032 21.9822 14.4165 21.8962 13.7612 21.8255C13.3045 21.7745 12.828 21.7352 12.3356 21.7077C6.80371 21.2836 2.74516 19.6418 1.17654 15.4012C1.17257 15.389 1.1686 15.3776 1.16463 15.3698C1.00976 14.9178 0.874735 14.4352 0.771484 13.9247H179.034L182.497 22.1043Z" fill="#B6D3DD" fill-opacity="0.5"/>
<path fill-rule="evenodd" clip-rule="evenodd" d="M187.719 34.4501V35.7817H13.2291C11.4504 35.7817 9.67088 35.5143 8.01927 34.9806C4.47658 33.8375 1.53433 31.2693 0.450195 27.6021H184.82L187.719 34.4501Z" fill="#B6D3DD" fill-opacity="0.5"/>
<path fill-rule="evenodd" clip-rule="evenodd" d="M26.179 22.1043C26.1592 22.01 26.1393 21.9158 26.1155 21.8255C24.7375 16.0255 19.2215 15.1694 13.5983 14.5294C12.4904 14.3998 11.4579 14.2423 10.612 13.96C10.5802 13.9478 10.5445 13.936 10.5127 13.9246C9.15457 13.4495 8.30076 12.6245 8.41196 11.0384C8.49535 9.8407 9.5358 9.0514 10.4412 8.7133C12.0059 8.12427 14.2258 8.09325 15.7825 8.82718C16.807 9.30665 17.4782 10.2452 17.4782 11.5293H25.4205C25.4364 10.5672 25.3371 9.66399 25.1465 8.82718C25.0989 8.60767 25.0393 8.39169 24.9797 8.17964C23.8598 4.35096 20.7425 1.59038 17.089 0.565075C15.7428 0.188096 14.325 0 12.9073 0C11.4896 0 10.0759 0.188096 8.73362 0.565075C4.961 1.62179 1.77611 4.16247 0.783319 8.17964C0.763463 8.26211 0.743607 8.3485 0.723751 8.43449C0.541077 9.27131 0.453711 10.1745 0.469596 11.1366C0.481509 12.1689 0.58476 13.1078 0.763463 13.96C0.870685 14.4583 1.0057 14.926 1.16455 15.3697C1.16852 15.3776 1.17249 15.389 1.17647 15.4011C2.74508 19.6417 6.80363 21.2836 12.3355 21.7077C12.8279 21.7351 13.3045 21.7744 13.7611 21.8255C14.4164 21.8961 15.0319 21.9821 15.5839 22.1043C17.224 22.4655 18.3201 23.137 18.3201 24.6681C18.3201 25.6812 17.6767 26.412 16.7117 26.9064C15.8063 27.3702 14.6149 27.6019 13.4077 27.6019C12.2084 27.6019 10.9932 27.3702 10.0282 26.9064C8.88056 26.3531 8.08632 25.4696 8.08632 24.2523H0.000996226C-0.0109173 25.1947 0.084391 26.0822 0.267065 26.9064C0.318691 27.1424 0.38223 27.3741 0.44974 27.6019C1.53387 31.2696 4.47652 33.8377 8.01881 34.9804C9.67082 35.5141 11.4499 35.7815 13.229 35.7815C15.0121 35.7815 16.7951 35.5141 18.4471 34.9804C22.1046 33.8024 25.1267 31.3324 26.1036 27.6019C26.1512 27.4409 26.187 27.2799 26.2227 27.1149C26.3736 26.4156 26.4491 25.6777 26.4491 24.9041C26.4491 23.8631 26.3577 22.9324 26.179 22.1043" fill="#1F88C9"/>
<path fill-rule="evenodd" clip-rule="evenodd" d="M52.2209 8.18C50.2583 8.12895 48.2021 8.18 46.2395 8.18V17.1242H52.2209C56.7536 17.1242 56.9871 8.23144 52.2209 8.18V8.18ZM65.5386 34.4511V35.7795H56.1929L50.5856 25.2512H46.2395V35.7795H37.875V0.00231934H52.2209C65.0712 0.0537612 67.4079 16.9714 59.1367 23.1044L65.5386 34.4511Z" fill="#1F88C9"/>
<path fill-rule="evenodd" clip-rule="evenodd" d="M127.775 27.4488H131.747C142.168 27.4488 142.168 8.33329 131.747 8.33329H127.775V27.4488ZM131.747 35.7797H119.411V0.0020752H131.747C153.056 0.104566 153.056 35.6776 131.747 35.7797V35.7797Z" fill="#1F88C9"/>
<path fill-rule="evenodd" clip-rule="evenodd" d="M171.333 14.333L174.569 22.2763L175.454 24.4471H167.309L168.173 22.2763L171.333 14.333ZM185.024 27.7059L182.698 22.2763L179.238 14.2019L176.808 8.52993L173.345 0.455531L173.152 0.00158691H169.555L169.362 0.455531L165.913 8.52993L163.49 14.2019L160.044 22.2763L157.724 27.7059L154.837 34.468V35.78H163.014L164.839 31.5503L177.919 31.5507L179.741 35.78H187.922V34.468L185.024 27.7059Z" fill="#1F88C9"/>
<path fill-rule="evenodd" clip-rule="evenodd" d="M76.7578 8.18H106.062V0.00231934H76.7578V8.18Z" fill="#1F88C9"/>
<path fill-rule="evenodd" clip-rule="evenodd" d="M76.7578 22.1015H106.062V13.9238H76.7578V22.1015Z" fill="#1F88C9"/>
<path fill-rule="evenodd" clip-rule="evenodd" d="M76.7578 35.7799H106.062V27.6022H76.7578V35.7799Z" fill="#1F88C9"/>
</svg>
