<svg width="48" height="48" viewBox="0 0 48 48" fill="none" xmlns="http://www.w3.org/2000/svg">
<path fill-rule="evenodd" clip-rule="evenodd" d="M24 46C11.8497 46 2 36.1503 2 24C2 11.8497 11.8497 2 24 2C36.1503 2 46 11.8497 46 24C46 36.1503 36.1503 46 24 46ZM24 42C33.9411 42 42 33.9411 42 24C42 14.0589 33.9411 6 24 6C14.0589 6 6 14.0589 6 24C6 33.9411 14.0589 42 24 42ZM21.1716 27.6569L16.9289 23.4142C16.1479 22.6332 14.8816 22.6332 14.1005 23.4142C13.3195 24.1953 13.3195 25.4616 14.1005 26.2426L19.7574 31.8995C20.5384 32.6805 21.8047 32.6805 22.5858 31.8995L33.8995 20.5858C34.6805 19.8047 34.6805 18.5384 33.8995 17.7574C33.1184 16.9763 31.8521 16.9763 31.0711 17.7574L21.1716 27.6569Z" fill="#1F88C9"/>
<path d="M16.9289 23.4142L16.2218 24.1213L16.9289 23.4142ZM21.1716 27.6569L20.4645 28.364L21.1716 29.0711L21.8787 28.364L21.1716 27.6569ZM14.1005 23.4142L14.8076 24.1213L14.1005 23.4142ZM14.1005 26.2426L13.3934 26.9497L13.3934 26.9497L14.1005 26.2426ZM22.5858 31.8995L21.8787 31.1924V31.1924L22.5858 31.8995ZM33.8995 20.5858L34.6066 21.2929L33.8995 20.5858ZM33.8995 17.7574L33.1924 18.4645H33.1924L33.8995 17.7574ZM31.0711 17.7574L31.7782 18.4645L31.0711 17.7574ZM1 24C1 36.7025 11.2975 47 24 47V45C12.402 45 3 35.598 3 24H1ZM24 1C11.2975 1 1 11.2975 1 24H3C3 12.402 12.402 3 24 3V1ZM47 24C47 11.2975 36.7025 1 24 1V3C35.598 3 45 12.402 45 24H47ZM24 47C36.7025 47 47 36.7025 47 24H45C45 35.598 35.598 45 24 45V47ZM41 24C41 33.3888 33.3888 41 24 41V43C34.4934 43 43 34.4934 43 24H41ZM24 7C33.3888 7 41 14.6112 41 24H43C43 13.5066 34.4934 5 24 5V7ZM7 24C7 14.6112 14.6112 7 24 7V5C13.5066 5 5 13.5066 5 24H7ZM24 41C14.6112 41 7 33.3888 7 24H5C5 34.4934 13.5066 43 24 43V41ZM16.2218 24.1213L20.4645 28.364L21.8787 26.9497L17.636 22.7071L16.2218 24.1213ZM14.8076 24.1213C15.1981 23.7308 15.8313 23.7308 16.2218 24.1213L17.636 22.7071C16.4645 21.5355 14.565 21.5355 13.3934 22.7071L14.8076 24.1213ZM14.8076 25.5355C14.4171 25.145 14.4171 24.5118 14.8076 24.1213L13.3934 22.7071C12.2218 23.8787 12.2218 25.7782 13.3934 26.9497L14.8076 25.5355ZM20.4645 31.1924L14.8076 25.5355L13.3934 26.9497L19.0503 32.6066L20.4645 31.1924ZM21.8787 31.1924C21.4882 31.5829 20.855 31.5829 20.4645 31.1924L19.0503 32.6066C20.2218 33.7782 22.1213 33.7782 23.2929 32.6066L21.8787 31.1924ZM33.1924 19.8787L21.8787 31.1924L23.2929 32.6066L34.6066 21.2929L33.1924 19.8787ZM33.1924 18.4645C33.5829 18.855 33.5829 19.4882 33.1924 19.8787L34.6066 21.2929C35.7782 20.1213 35.7782 18.2218 34.6066 17.0503L33.1924 18.4645ZM31.7782 18.4645C32.1687 18.0739 32.8019 18.0739 33.1924 18.4645L34.6066 17.0503C33.435 15.8787 31.5355 15.8787 30.364 17.0503L31.7782 18.4645ZM21.8787 28.364L31.7782 18.4645L30.364 17.0503L20.4645 26.9497L21.8787 28.364Z" fill="white"/>
</svg>
