<svg width="48" height="48" viewBox="0 0 48 48" fill="none" xmlns="http://www.w3.org/2000/svg">
<path fill-rule="evenodd" clip-rule="evenodd" d="M14 12V10C14 6.68629 16.6863 4 20 4H28C31.3137 4 34 6.68629 34 10V12H38C42.4183 12 46 15.5817 46 20V36C46 40.4183 42.4183 44 38 44H10C5.58172 44 2 40.4183 2 36V20C2 15.5817 5.58172 12 10 12H14ZM18 12H30V10C30 8.89543 29.1046 8 28 8H20C18.8954 8 18 8.89543 18 10V12ZM10 16H14V40H10C7.79086 40 6 38.2091 6 36V20C6 17.7909 7.79086 16 10 16ZM18 16V40H30V16H18ZM34 40V16H38C40.2091 16 42 17.7909 42 20V36C42 38.2091 40.2091 40 38 40H34Z" fill="#1F88C9"/>
<path d="M14 12V13H15V12H14ZM34 12H33V13H34V12ZM30 12V13H31V12H30ZM18 12H17V13H18V12ZM14 16H15V15H14V16ZM14 40V41H15V40H14ZM18 40H17V41H18V40ZM18 16V15H17V16H18ZM30 40V41H31V40H30ZM30 16H31V15H30V16ZM34 16V15H33V16H34ZM34 40H33V41H34V40ZM13 10V12H15V10H13ZM20 3C16.134 3 13 6.13401 13 10H15C15 7.23858 17.2386 5 20 5V3ZM28 3H20V5H28V3ZM35 10C35 6.13401 31.866 3 28 3V5C30.7614 5 33 7.23858 33 10H35ZM35 12V10H33V12H35ZM38 11H34V13H38V11ZM47 20C47 15.0294 42.9706 11 38 11V13C41.866 13 45 16.134 45 20H47ZM47 36V20H45V36H47ZM38 45C42.9706 45 47 40.9706 47 36H45C45 39.866 41.866 43 38 43V45ZM10 45H38V43H10V45ZM1 36C1 40.9706 5.02944 45 10 45V43C6.13401 43 3 39.866 3 36H1ZM1 20V36H3V20H1ZM10 11C5.02944 11 1 15.0294 1 20H3C3 16.134 6.13401 13 10 13V11ZM14 11H10V13H14V11ZM30 11H18V13H30V11ZM29 10V12H31V10H29ZM28 9C28.5523 9 29 9.44771 29 10H31C31 8.34315 29.6568 7 28 7V9ZM20 9H28V7H20V9ZM19 10C19 9.44771 19.4477 9 20 9V7C18.3431 7 17 8.34315 17 10H19ZM19 12V10H17V12H19ZM14 15H10V17H14V15ZM15 40V16H13V40H15ZM10 41H14V39H10V41ZM5 36C5 38.7614 7.23858 41 10 41V39C8.34315 39 7 37.6569 7 36H5ZM5 20V36H7V20H5ZM10 15C7.23858 15 5 17.2386 5 20H7C7 18.3431 8.34315 17 10 17V15ZM19 40V16H17V40H19ZM30 39H18V41H30V39ZM29 16V40H31V16H29ZM18 17H30V15H18V17ZM33 16V40H35V16H33ZM38 15H34V17H38V15ZM43 20C43 17.2386 40.7614 15 38 15V17C39.6569 17 41 18.3431 41 20H43ZM43 36V20H41V36H43ZM38 41C40.7614 41 43 38.7614 43 36H41C41 37.6569 39.6569 39 38 39V41ZM34 41H38V39H34V41Z" fill="white"/>
</svg>
