<svg width="48" height="48" viewBox="0 0 48 48" fill="none" xmlns="http://www.w3.org/2000/svg">
<path fill-rule="evenodd" clip-rule="evenodd" d="M32.9234 6.7222L37.997 11.7557H18.8453C17.7402 11.7557 16.8443 12.6444 16.8443 13.7408C16.8443 14.8372 17.7402 15.726 18.8453 15.726H37.997L32.9234 20.7594C32.142 21.5347 32.142 22.7916 32.9234 23.5669C33.7048 24.3421 34.9718 24.3421 35.7532 23.5669L42.8278 16.5483C44.3907 14.9978 44.3907 12.4839 42.8278 10.9334L35.7532 3.91475C34.9718 3.1395 33.7048 3.1395 32.9234 3.91475C32.142 4.69001 32.142 5.94695 32.9234 6.7222ZM29.1841 32.274H10.003L15.0766 27.2405C15.858 26.4653 15.858 25.2083 15.0766 24.4331C14.2952 23.6578 13.0282 23.6578 12.2468 24.4331L5.17216 31.4517C3.60928 33.0022 3.60928 35.5161 5.17216 37.0666L12.2468 44.0852C13.0282 44.8605 14.2952 44.8605 15.0766 44.0852C15.858 43.31 15.858 42.053 15.0766 41.2778L10.003 36.2443H29.1841C30.2893 36.2443 31.1851 35.3555 31.1851 34.2591C31.1851 33.1628 30.2893 32.274 29.1841 32.274Z" fill="#1F88C9"/>
<path d="M37.997 11.7557V12.7557H40.4248L38.7013 11.0457L37.997 11.7557ZM32.9234 6.7222L32.2191 7.43211L32.2191 7.43211L32.9234 6.7222ZM37.997 15.726L38.7013 16.4359L40.4248 14.726H37.997V15.726ZM32.9234 20.7594L32.2191 20.0495H32.2191L32.9234 20.7594ZM32.9234 23.5669L32.2191 24.2768H32.2191L32.9234 23.5669ZM35.7532 23.5669L36.4575 24.2768L35.7532 23.5669ZM42.8278 16.5483L42.1236 15.8384V15.8384L42.8278 16.5483ZM42.8278 10.9334L42.1236 11.6433L42.8278 10.9334ZM35.7532 3.91475L36.4575 3.20484V3.20484L35.7532 3.91475ZM32.9234 3.91475L32.2191 3.20484L32.2191 3.20485L32.9234 3.91475ZM10.003 32.274L9.2987 31.5641L7.57515 33.274H10.003V32.274ZM15.0766 27.2405L14.3723 26.5306L15.0766 27.2405ZM12.2468 24.4331L11.5425 23.7232L12.2468 24.4331ZM5.17216 31.4517L4.46787 30.7418H4.46787L5.17216 31.4517ZM5.17216 37.0666L5.87645 36.3567L5.17216 37.0666ZM12.2468 44.0852L11.5425 44.7951H11.5425L12.2468 44.0852ZM15.0766 41.2778L15.7809 40.5678L15.7809 40.5678L15.0766 41.2778ZM10.003 36.2443V35.2443H7.57515L9.2987 36.9542L10.003 36.2443ZM38.7013 11.0457L33.6277 6.01229L32.2191 7.43211L37.2927 12.4656L38.7013 11.0457ZM18.8453 12.7557H37.997V10.7557H18.8453V12.7557ZM17.8443 13.7408C17.8443 13.2042 18.285 12.7557 18.8453 12.7557V10.7557C17.1954 10.7557 15.8443 12.0847 15.8443 13.7408H17.8443ZM18.8453 14.726C18.285 14.726 17.8443 14.2774 17.8443 13.7408H15.8443C15.8443 15.397 17.1954 16.726 18.8453 16.726V14.726ZM37.997 14.726H18.8453V16.726H37.997V14.726ZM33.6277 21.4693L38.7013 16.4359L37.2927 15.0161L32.2191 20.0495L33.6277 21.4693ZM33.6277 22.857C33.2405 22.4729 33.2405 21.8534 33.6277 21.4693L32.2191 20.0495C31.0434 21.2159 31.0434 23.1104 32.2191 24.2768L33.6277 22.857ZM35.049 22.857C34.6574 23.2454 34.0193 23.2454 33.6277 22.857L32.2191 24.2768C33.3904 25.4388 35.2862 25.4388 36.4575 24.2768L35.049 22.857ZM42.1236 15.8384L35.049 22.857L36.4575 24.2768L43.5321 17.2582L42.1236 15.8384ZM42.1236 11.6433C43.2922 12.8026 43.2922 14.679 42.1236 15.8384L43.5321 17.2582C45.4893 15.3165 45.4893 12.1651 43.5321 10.2235L42.1236 11.6433ZM35.049 4.62466L42.1236 11.6433L43.5321 10.2235L36.4575 3.20484L35.049 4.62466ZM33.6277 4.62466C34.0193 4.2362 34.6574 4.2362 35.049 4.62466L36.4575 3.20484C35.2862 2.0428 33.3904 2.0428 32.2191 3.20484L33.6277 4.62466ZM33.6277 6.01229C33.2405 5.62819 33.2405 5.00876 33.6277 4.62466L32.2191 3.20485C31.0434 4.37126 31.0434 6.2657 32.2191 7.43211L33.6277 6.01229ZM10.003 33.274H29.1841V31.274H10.003V33.274ZM14.3723 26.5306L9.2987 31.5641L10.7073 32.9839L15.7809 27.9504L14.3723 26.5306ZM14.3723 25.143C14.7595 25.5271 14.7595 26.1465 14.3723 26.5306L15.7809 27.9504C16.9566 26.784 16.9566 24.8896 15.7809 23.7232L14.3723 25.143ZM12.951 25.143C13.3426 24.7545 13.9807 24.7545 14.3723 25.143L15.7809 23.7232C14.6096 22.5611 12.7138 22.5611 11.5425 23.7232L12.951 25.143ZM5.87645 32.1616L12.951 25.143L11.5425 23.7232L4.46787 30.7418L5.87645 32.1616ZM5.87645 36.3567C4.70785 35.1973 4.70785 33.321 5.87645 32.1616L4.46787 30.7418C2.51071 32.6834 2.51071 35.8348 4.46787 37.7765L5.87645 36.3567ZM12.951 43.3753L5.87645 36.3567L4.46787 37.7765L11.5425 44.7951L12.951 43.3753ZM14.3723 43.3753C13.9807 43.7638 13.3426 43.7638 12.951 43.3753L11.5425 44.7951C12.7138 45.9572 14.6096 45.9572 15.7809 44.7951L14.3723 43.3753ZM14.3723 41.9877C14.7595 42.3718 14.7595 42.9912 14.3723 43.3753L15.7809 44.7951C16.9566 43.6287 16.9566 41.7343 15.7809 40.5678L14.3723 41.9877ZM9.2987 36.9542L14.3723 41.9877L15.7809 40.5678L10.7073 35.5344L9.2987 36.9542ZM29.1841 35.2443H10.003V37.2443H29.1841V35.2443ZM30.1851 34.2591C30.1851 34.7958 29.7445 35.2443 29.1841 35.2443V37.2443C30.834 37.2443 32.1851 35.9153 32.1851 34.2591H30.1851ZM29.1841 33.274C29.7445 33.274 30.1851 33.7225 30.1851 34.2591H32.1851C32.1851 32.603 30.834 31.274 29.1841 31.274V33.274Z" fill="white"/>
</svg>
