<svg width="50" height="48" viewBox="0 0 50 48" fill="none" xmlns="http://www.w3.org/2000/svg">
<path fill-rule="evenodd" clip-rule="evenodd" d="M3 39.5728H10.7196L22.8396 43.0264C24.2446 43.4267 25.7326 43.4356 27.1423 43.0522L47.5262 37.5079C48.3964 37.2712 49 36.483 49 35.5836V33.5889C49 29.2247 45.4865 25.6789 41.1267 25.6114C42.3383 23.5219 43 21.1267 43 18.6291C43 10.9179 36.732 4.66669 29 4.66669C21.6042 4.66669 15.5479 10.386 15.0352 17.6318H11H3C1.89543 17.6318 1 18.5249 1 19.6265V37.5782C1 38.6798 1.89543 39.5728 3 39.5728ZM36.1414 25.6104H33.9297C32.5465 23.2256 29.9611 21.6211 27 21.6211H25.8284L24.1716 19.9687C22.7974 18.5982 20.9747 17.7778 19.0476 17.6495C19.5411 12.6013 23.8086 8.65596 29 8.65596C34.5228 8.65596 39 13.1211 39 18.6291C39 21.278 37.9624 23.7582 36.1414 25.6104ZM5 35.5836V21.6211H9V35.5836H5ZM35 29.5996V31.5943C35 32.6959 34.1046 33.5889 33 33.5889H21C19.8954 33.5889 19 32.6959 19 31.5943C19 30.4927 19.8954 29.5996 21 29.5996H31C31 27.3964 29.2091 25.6104 27 25.6104H25C24.4696 25.6104 23.9609 25.4002 23.5858 25.0262L21.3431 22.7895C20.593 22.0414 19.5756 21.6211 18.5147 21.6211H13V36.0737L23.9385 39.1906C24.641 39.3908 25.385 39.3952 26.0899 39.2035L45 34.0601V33.5889C45 31.3857 43.2091 29.5996 41 29.5996H35Z" fill="#1F88C9"/>
<path d="M10.7196 39.5728L10.9937 38.6111L10.8593 38.5728H10.7196V39.5728ZM22.8396 43.0264L22.5656 43.9881L22.8396 43.0264ZM27.1423 43.0522L26.8799 42.0873H26.8799L27.1423 43.0522ZM47.5262 37.5079L47.2638 36.543L47.5262 37.5079ZM41.1267 25.6114L40.2616 25.1097L39.4062 26.5848L41.1112 26.6112L41.1267 25.6114ZM15.0352 17.6318V18.6318H15.9669L16.0327 17.7024L15.0352 17.6318ZM33.9297 25.6104L33.0647 26.1121L33.3537 26.6104H33.9297V25.6104ZM36.1414 25.6104V26.6104H36.5606L36.8545 26.3114L36.1414 25.6104ZM25.8284 21.6211L25.1223 22.3292L25.415 22.6211H25.8284V21.6211ZM24.1716 19.9687L24.8777 19.2606H24.8777L24.1716 19.9687ZM19.0476 17.6495L18.0524 17.5522L17.952 18.5788L18.9812 18.6473L19.0476 17.6495ZM5 21.6211V20.6211H4V21.6211H5ZM5 35.5836H4V36.5836H5V35.5836ZM9 21.6211H10V20.6211H9V21.6211ZM9 35.5836V36.5836H10V35.5836H9ZM35 29.5996V28.5996H34V29.5996H35ZM31 29.5996V30.5996H32V29.5996H31ZM23.5858 25.0262L24.2919 24.3181L23.5858 25.0262ZM21.3431 22.7895L22.0493 22.0815H22.0493L21.3431 22.7895ZM13 21.6211V20.6211H12V21.6211H13ZM13 36.0737H12V36.8286L12.726 37.0354L13 36.0737ZM23.9385 39.1906L24.2126 38.2289H24.2126L23.9385 39.1906ZM26.0899 39.2035L26.3523 40.1685H26.3523L26.0899 39.2035ZM45 34.0601L45.2625 35.025L46 34.8244V34.0601H45ZM10.7196 38.5728H3V40.5728H10.7196V38.5728ZM23.1137 42.0647L10.9937 38.6111L10.4456 40.5346L22.5656 43.9881L23.1137 42.0647ZM26.8799 42.0873C25.646 42.4229 24.3434 42.4151 23.1137 42.0647L22.5656 43.9881C24.1458 44.4384 25.8193 44.4484 27.4048 44.0172L26.8799 42.0873ZM47.2638 36.543L26.8799 42.0873L27.4048 44.0172L47.7887 38.4729L47.2638 36.543ZM48 35.5836C48 36.0302 47.7001 36.4243 47.2638 36.543L47.7887 38.4729C49.0927 38.1182 50 36.9358 50 35.5836H48ZM48 33.5889V35.5836H50V33.5889H48ZM41.1112 26.6112C44.9282 26.6703 48 29.7743 48 33.5889H50C50 28.6751 46.0449 24.6874 41.1422 24.6115L41.1112 26.6112ZM42 18.6291C42 20.9487 41.3857 23.1711 40.2616 25.1097L41.9918 26.113C43.2908 23.8727 44 21.3046 44 18.6291H42ZM29 5.66669C36.1822 5.66669 42 11.4727 42 18.6291H44C44 10.3631 37.2817 3.66669 29 3.66669V5.66669ZM16.0327 17.7024C16.5085 10.9787 22.1306 5.66669 29 5.66669V3.66669C21.0779 3.66669 14.5874 9.79332 14.0377 17.5612L16.0327 17.7024ZM11 18.6318H15.0352V16.6318H11V18.6318ZM3 18.6318H11V16.6318H3V18.6318ZM2 19.6265C2 19.0797 2.44518 18.6318 3 18.6318V16.6318C1.34568 16.6318 0 17.97 0 19.6265H2ZM2 37.5782V19.6265H0V37.5782H2ZM3 38.5728C2.44518 38.5728 2 38.125 2 37.5782H0C0 39.2346 1.34568 40.5728 3 40.5728V38.5728ZM33.9297 26.6104H36.1414V24.6104H33.9297V26.6104ZM27 22.6211C29.591 22.6211 31.8535 24.0239 33.0647 26.1121L34.7948 25.1086C33.2395 22.4273 30.3312 20.6211 27 20.6211V22.6211ZM25.8284 22.6211H27V20.6211H25.8284V22.6211ZM23.4654 20.6767L25.1223 22.3292L26.5346 20.913L24.8777 19.2606L23.4654 20.6767ZM18.9812 18.6473C20.6682 18.7596 22.2632 19.4778 23.4654 20.6767L24.8777 19.2606C23.3316 17.7186 21.2813 16.796 19.114 16.6517L18.9812 18.6473ZM29 7.65596C23.2911 7.65596 18.5956 11.9947 18.0524 17.5522L20.0429 17.7468C20.4866 13.2079 24.326 9.65596 29 9.65596V7.65596ZM40 18.6291C40 12.5663 35.0726 7.65596 29 7.65596V9.65596C33.9731 9.65596 38 13.6759 38 18.6291H40ZM36.8545 26.3114C38.8571 24.2745 40 21.5435 40 18.6291H38C38 21.0126 37.0676 23.2419 35.4283 24.9093L36.8545 26.3114ZM4 21.6211V35.5836H6V21.6211H4ZM9 20.6211H5V22.6211H9V20.6211ZM10 35.5836V21.6211H8V35.5836H10ZM5 36.5836H9V34.5836H5V36.5836ZM36 31.5943V29.5996H34V31.5943H36ZM33 34.5889C34.6543 34.5889 36 33.2507 36 31.5943H34C34 32.1411 33.5548 32.5889 33 32.5889V34.5889ZM21 34.5889H33V32.5889H21V34.5889ZM18 31.5943C18 33.2507 19.3457 34.5889 21 34.5889V32.5889C20.4452 32.5889 20 32.1411 20 31.5943H18ZM21 28.5996C19.3457 28.5996 18 29.9379 18 31.5943H20C20 31.0475 20.4452 30.5996 21 30.5996V28.5996ZM31 28.5996H21V30.5996H31V28.5996ZM27 26.6104C28.6594 26.6104 30 27.9512 30 29.5996H32C32 26.8416 29.7589 24.6104 27 24.6104V26.6104ZM25 26.6104H27V24.6104H25V26.6104ZM22.8796 25.7342C23.4424 26.2955 24.2052 26.6104 25 26.6104V24.6104C24.7339 24.6104 24.4793 24.5049 24.2919 24.3181L22.8796 25.7342ZM20.637 23.4976L22.8796 25.7342L24.2919 24.3181L22.0493 22.0815L20.637 23.4976ZM18.5147 22.6211C19.3112 22.6211 20.0746 22.9367 20.637 23.4976L22.0493 22.0815C21.1114 21.1461 19.8399 20.6211 18.5147 20.6211V22.6211ZM13 22.6211H18.5147V20.6211H13V22.6211ZM14 36.0737V21.6211H12V36.0737H14ZM24.2126 38.2289L13.274 35.112L12.726 37.0354L23.6645 40.1523L24.2126 38.2289ZM25.8274 38.2386C25.2983 38.3825 24.7398 38.3791 24.2126 38.2289L23.6645 40.1523C24.5422 40.4024 25.4717 40.408 26.3523 40.1685L25.8274 38.2386ZM44.7375 33.0951L25.8274 38.2386L26.3523 40.1685L45.2625 35.025L44.7375 33.0951ZM44 33.5889V34.0601H46V33.5889H44ZM41 30.5996C42.6594 30.5996 44 31.9405 44 33.5889H46C46 30.8309 43.7589 28.5996 41 28.5996V30.5996ZM35 30.5996H41V28.5996H35V30.5996Z" fill="white"/>
</svg>
