<svg width="48" height="48" viewBox="0 0 48 48" fill="none" xmlns="http://www.w3.org/2000/svg">
<path fill-rule="evenodd" clip-rule="evenodd" d="M19.6598 4C17.9496 4 16.4312 5.10152 15.8902 6.73467L12.821 16H10.2807C5.89158 16 2.3335 19.5817 2.3335 24V36C2.3335 40.4183 5.89158 44 10.2807 44H35.2361C39.0005 44 42.2485 41.3414 43.0163 37.6316L45.4998 25.6316C45.6109 25.095 45.6668 24.5482 45.6668 24C45.6668 19.5817 42.1087 16 37.7196 16H30.1487V11C30.1487 7.13401 27.0354 4 23.1949 4H19.6598ZM16.2411 18.3203V40H35.2361C37.1183 40 38.7423 38.6707 39.1262 36.8158L41.6097 24.8158C41.6652 24.5475 41.6932 24.2741 41.6932 24C41.6932 21.7909 39.9142 20 37.7196 20H30.1487C27.9542 20 26.1751 18.2091 26.1751 16V11C26.1751 9.34315 24.8408 8 23.1949 8H19.6598L16.2411 18.3203ZM12.2675 40V20H10.2807C8.08615 20 6.3071 21.7909 6.3071 24V36C6.3071 38.2091 8.08615 40 10.2807 40H12.2675Z" fill="#1F88C9"/>
<path d="M15.8902 6.73467L14.9409 6.42022L15.8902 6.73467ZM12.821 16V17H13.5432L13.7703 16.3145L12.821 16ZM43.0163 37.6316L42.037 37.429L43.0163 37.6316ZM45.4998 25.6316L46.479 25.8343V25.8343L45.4998 25.6316ZM30.1487 16H29.1487V17H30.1487V16ZM16.2411 40H15.2411V41H16.2411V40ZM16.2411 18.3203L15.2918 18.0058L15.2411 18.159V18.3203H16.2411ZM39.1262 36.8158L40.1054 37.0185L39.1262 36.8158ZM41.6097 24.8158L42.5889 25.0185V25.0185L41.6097 24.8158ZM19.6598 8V7H18.9376L18.7105 7.68555L19.6598 8ZM12.2675 20H13.2675V19H12.2675V20ZM12.2675 40V41H13.2675V40H12.2675ZM16.8395 7.04912C17.246 5.82185 18.3842 5 19.6598 5V3C17.5149 3 15.6164 4.38118 14.9409 6.42022L16.8395 7.04912ZM13.7703 16.3145L16.8395 7.04912L14.9409 6.42022L11.8717 15.6855L13.7703 16.3145ZM10.2807 17H12.821V15H10.2807V17ZM3.3335 24C3.3335 20.1278 6.4501 17 10.2807 17V15C5.33307 15 1.3335 19.0357 1.3335 24H3.3335ZM3.3335 36V24H1.3335V36H3.3335ZM10.2807 43C6.4501 43 3.3335 39.8722 3.3335 36H1.3335C1.3335 40.9643 5.33307 45 10.2807 45V43ZM35.2361 43H10.2807V45H35.2361V43ZM42.037 37.429C41.3645 40.6788 38.5219 43 35.2361 43V45C39.4791 45 43.1326 42.004 43.9955 37.8343L42.037 37.429ZM44.5205 25.429L42.037 37.429L43.9955 37.8343L46.479 25.8343L44.5205 25.429ZM44.6668 24C44.6668 24.4801 44.6178 24.959 44.5205 25.429L46.479 25.8343C46.6039 25.2309 46.6668 24.6163 46.6668 24H44.6668ZM37.7196 17C41.5502 17 44.6668 20.1278 44.6668 24H46.6668C46.6668 19.0357 42.6673 15 37.7196 15V17ZM30.1487 17H37.7196V15H30.1487V17ZM29.1487 11V16H31.1487V11H29.1487ZM23.1949 5C26.4769 5 29.1487 7.68004 29.1487 11H31.1487C31.1487 6.58797 27.5939 3 23.1949 3V5ZM19.6598 5H23.1949V3H19.6598V5ZM17.2411 40V18.3203H15.2411V40H17.2411ZM35.2361 39H16.2411V41H35.2361V39ZM38.1469 36.6132C37.8583 38.0081 36.6397 39 35.2361 39V41C37.5969 41 39.6264 39.3333 40.1054 37.0185L38.1469 36.6132ZM40.6305 24.6132L38.1469 36.6132L40.1054 37.0185L42.5889 25.0185L40.6305 24.6132ZM40.6932 24C40.6932 24.206 40.6722 24.4115 40.6305 24.6132L42.5889 25.0185C42.6583 24.6835 42.6932 24.3422 42.6932 24H40.6932ZM37.7196 21C39.3557 21 40.6932 22.3369 40.6932 24H42.6932C42.6932 21.2448 40.4727 19 37.7196 19V21ZM30.1487 21H37.7196V19H30.1487V21ZM25.1751 16C25.1751 18.7552 27.3957 21 30.1487 21V19C28.5127 19 27.1751 17.6631 27.1751 16H25.1751ZM25.1751 11V16H27.1751V11H25.1751ZM23.1949 9C24.2823 9 25.1751 9.88918 25.1751 11H27.1751C27.1751 8.79711 25.3994 7 23.1949 7V9ZM19.6598 9H23.1949V7H19.6598V9ZM17.1904 18.6347L20.609 8.31445L18.7105 7.68555L15.2918 18.0058L17.1904 18.6347ZM11.2675 20V40H13.2675V20H11.2675ZM10.2807 21H12.2675V19H10.2807V21ZM7.3071 24C7.3071 22.3369 8.64466 21 10.2807 21V19C7.52763 19 5.3071 21.2448 5.3071 24H7.3071ZM7.3071 36V24H5.3071V36H7.3071ZM10.2807 39C8.64466 39 7.3071 37.6631 7.3071 36H5.3071C5.3071 38.7552 7.52763 41 10.2807 41V39ZM12.2675 39H10.2807V41H12.2675V39Z" fill="white"/>
</svg>
